<svg width="26" height="26" viewBox="0 0 26 26" fill="none" xmlns="http://www.w3.org/2000/svg">
<path d="M22.6927 8.99716C22.6807 8.17708 22.5291 7.36349 22.2387 6.59649C21.7307 5.28674 20.6961 4.25108 19.3863 3.74408C18.6291 3.45916 17.8285 3.30641 17.0182 3.28908C15.976 3.24249 15.6456 3.22949 13.0001 3.22949C10.3546 3.22949 10.0155 3.22949 8.98091 3.28908C8.17166 3.30641 7.37108 3.45916 6.61383 3.74408C5.30408 4.25108 4.26841 5.28674 3.76141 6.59649C3.47649 7.35374 3.32266 8.15433 3.30749 8.96358C3.26091 10.0068 3.24683 10.3372 3.24683 12.9827C3.24683 15.6282 3.24683 15.9662 3.30749 17.0019C3.32374 17.8122 3.47649 18.6117 3.76141 19.3712C4.26949 20.6798 5.30408 21.7155 6.61491 22.2225C7.36891 22.5172 8.16949 22.684 8.98199 22.71C10.0252 22.7566 10.3557 22.7707 13.0012 22.7707C15.6467 22.7707 15.9857 22.7707 17.0203 22.71C17.8296 22.6937 18.6302 22.541 19.3885 22.2561C20.6982 21.748 21.7328 20.7123 22.2409 19.4037C22.5258 18.6453 22.6786 17.8458 22.6948 17.0344C22.7414 15.9922 22.7555 15.6618 22.7555 13.0152C22.7533 10.3697 22.7533 10.0339 22.6927 8.99716ZM12.9936 17.9856C10.2267 17.9856 7.98533 15.7442 7.98533 12.9773C7.98533 10.2105 10.2267 7.96908 12.9936 7.96908C15.7582 7.96908 18.0018 10.2105 18.0018 12.9773C18.0018 15.7442 15.7582 17.9856 12.9936 17.9856ZM18.2012 8.95166C17.5544 8.95166 17.0333 8.42949 17.0333 7.78383C17.0333 7.13816 17.5544 6.61599 18.2012 6.61599C18.8457 6.61599 19.3679 7.13816 19.3679 7.78383C19.3679 8.42949 18.8457 8.95166 18.2012 8.95166Z" fill="#456ADD"/>
<path d="M12.9935 16.2306C14.7902 16.2306 16.2467 14.7741 16.2467 12.9774C16.2467 11.1807 14.7902 9.72412 12.9935 9.72412C11.1968 9.72412 9.74023 11.1807 9.74023 12.9774C9.74023 14.7741 11.1968 16.2306 12.9935 16.2306Z" fill="#456ADD"/>
</svg>
