<svg width="26" height="26" viewBox="0 0 26 26" fill="none" xmlns="http://www.w3.org/2000/svg">
<path d="M21.6667 3.25H4.33333C3.73425 3.25 3.25 3.73533 3.25 4.33333V21.6667C3.25 22.2647 3.73425 22.75 4.33333 22.75H21.6667C22.2658 22.75 22.75 22.2647 22.75 21.6667V4.33333C22.75 3.73533 22.2658 3.25 21.6667 3.25ZM9.03392 19.8651H6.13925V10.5592H9.03392V19.8651ZM7.58658 9.2885C6.65925 9.2885 5.90958 8.53667 5.90958 7.6115C5.90958 6.68633 6.65817 5.9345 7.58658 5.9345C8.51175 5.9345 9.26358 6.68525 9.26358 7.6115C9.26358 8.53775 8.51175 9.2885 7.58658 9.2885ZM19.8662 19.8651H16.9748V15.34C16.9748 14.261 16.9553 12.8733 15.4711 12.8733C13.9653 12.8733 13.7367 14.0498 13.7367 15.2642V19.8662H10.8474V10.5603H13.6208V11.8322H13.6608C14.0454 11.1009 14.9901 10.3296 16.3952 10.3296C19.3245 10.3296 19.8651 12.2558 19.8651 14.7626V19.8651H19.8662Z" fill="#456ADD"/>
</svg>
