<svg width="42" height="46" fill="none" xmlns="http://www.w3.org/2000/svg"><path d="M18.498 46c-5.14 0-10.158-2.249-13.56-6.108-3.526-4.013-5.313-9.66-4.872-15.488.367-5.188 2.521-10.453 6.022-14.874 3.01-3.782 6.682-6.594 10.648-8.127 4.43-1.738 9.18-1.866 13.34-.358 3.99 1.431 7.467 4.447 9.572 8.28 2.105 3.809 2.84 8.486 2.031 12.805-1.003 5.239-4.675 10.912-10.378 10.99-2.938.05-5.337-1.457-7.638-2.889-.832-.51-1.615-.997-2.399-1.43-.538 1.61-1.224 3.194-2.154 4.676-.954 1.533-1.983 2.607-3.157 3.322-1.616.972-3.525 1.15-5.068.486-2.423-1.048-3.77-4.217-3.01-7.028.538-1.968 1.81-3.604 3.671-4.677 2.13-1.227 4.92-1.661 7.466-1.252.147-.563.27-1.125.416-1.687v-.026c.025-.076.196-.818.49-1.865-.343-.154-.685-.307-1.028-.486-3.207-1.687-5.532-4.294-7.588-6.594l2.472-2.402c2.325 2.607 4.137 4.55 6.61 5.827.17.102.366.179.538.256.587-1.738 1.297-3.553 2.056-4.754.93-1.534 1.958-2.633 3.133-3.348 1.616-.997 3.5-1.176 5.067-.511 2.424 1.022 3.794 4.166 3.036 7.002-.588 2.25-2.35 4.217-4.75 5.24-1.933.843-4.112 1.073-6.34.69a66.228 66.228 0 00-.464 1.763v.051c-.147.614-.319 1.252-.465 1.866 1.101.537 2.13 1.175 3.157 1.814 1.983 1.227 3.843 2.403 5.802 2.403h.073c2.693-.026 6.07-2.607 7.123-8.153.661-3.501.074-7.284-1.64-10.376-1.713-3.093-4.528-5.52-7.76-6.696-3.426-1.227-7.367-1.125-11.064.307-3.427 1.329-6.609 3.782-9.228 7.079-3.06 3.86-4.945 8.434-5.263 12.906-.343 4.805 1.15 9.584 3.99 12.83 2.913 3.297 7.295 5.163 11.725 4.958 4.284-.204 8.617-2.351 11.579-5.801l2.496 2.35c-3.622 4.192-8.69 6.722-13.928 6.952-.22.077-.49.077-.759.077zm-1.37-18.299c-1.42 0-2.865.332-3.942.971-1.077.614-1.787 1.483-2.056 2.53-.294 1.125.196 2.454 1.053 2.837.587.256 1.37.154 2.08-.28.71-.41 1.347-1.125 2.008-2.173.734-1.176 1.297-2.454 1.762-3.808a5.207 5.207 0 00-.906-.077zm7.098-9.405c1.42.153 2.79-.026 3.99-.537 1.42-.613 2.473-1.712 2.79-2.913.295-1.125-.22-2.454-1.076-2.811-.588-.256-1.371-.128-2.08.306-.686.435-1.347 1.15-2.008 2.198-.539.87-1.102 2.3-1.616 3.757z" fill="#456ADD"/></svg>