<svg width="26" height="26" viewBox="0 0 26 26" fill="none" xmlns="http://www.w3.org/2000/svg">
<path d="M21.2692 8.66363C21.2833 8.85321 21.2833 9.04171 21.2833 9.23021C21.2833 14.999 16.8926 21.6463 8.86827 21.6463C6.3961 21.6463 4.09942 20.9302 2.16675 19.6865C2.51775 19.7266 2.85575 19.7407 3.22084 19.7407C5.26076 19.7407 7.13818 19.0517 8.63861 17.8763C6.72002 17.8362 5.11234 16.5795 4.55767 14.8505C4.82743 14.8906 5.09826 14.9177 5.38209 14.9177C5.77318 14.9177 6.16643 14.8635 6.53152 14.7693C4.53059 14.3641 3.03233 12.608 3.03233 10.4869V10.4327C3.61409 10.7566 4.28901 10.9592 5.00401 10.9863C3.82859 10.2041 3.05833 8.86621 3.05833 7.35279C3.05833 6.54246 3.27392 5.79929 3.652 5.15146C5.80026 7.79804 9.02969 9.52813 12.6502 9.71771C12.583 9.39271 12.5419 9.05579 12.5419 8.71779C12.5419 6.31279 14.4875 4.35413 16.9056 4.35413C18.1622 4.35413 19.2965 4.88063 20.0938 5.73213C21.0797 5.54254 22.0243 5.17746 22.8628 4.67804C22.5389 5.69096 21.8488 6.54246 20.9442 7.08304C21.8228 6.98771 22.6743 6.74504 23.4565 6.40704C22.8628 7.27154 22.1207 8.04179 21.2692 8.66363Z" fill="#456ADD"/>
</svg>
